Coordinates
version=1
nRows=11
nColumns=36
inDegrees=yes

Units are S.I. units (second, meters, Newtons, ...)
If the header above contains a line with 'inDegrees', this indicates whether rotational values are in degrees (yes) or radians (no).

endheader
time	pelvis_tilt	pelvis_list	pelvis_rotation	pelvis_tx	pelvis_ty	pelvis_tz	hip_flexion_r	hip_adduction_r	hip_rotation_r	knee_angle_r	knee_angle_r_beta	ankle_angle_r	subtalar_angle_r	mtp_angle_r	hip_flexion_l	hip_adduction_l	hip_rotation_l	knee_angle_l	knee_angle_l_beta	ankle_angle_l	subtalar_angle_l	mtp_angle_l	lumbar_extension	lumbar_bending	lumbar_rotation	arm_flex_r	arm_add_r	arm_rot_r	elbow_flex_r	pro_sup_r	arm_flex_l	arm_add_l	arm_rot_l	elbow_flex_l	pro_sup_l
      3.98333330	     -3.11628986	      2.13884725	     10.80024585	      0.67775906	      0.90352686	     -0.19362352	      3.43749534	     -6.55721125	     -6.61442093	      8.13692518	      0.14201614	      9.94412160	     -0.06992074	     -7.49999987	      5.48479242	     -0.36338191	      3.23158627	      5.65166258	      0.09864012	     12.89391670	      0.25407749	     -7.49999987	    -11.53193406	     -5.00449910	      1.53301601	     13.97149709	     -6.43048958	     43.91353565	     23.57948681	     71.79545168	     11.43601580	    -11.16815528	     53.05543092	     19.57452402	     48.77193291
      4.00000000	     -3.09755344	      2.14704311	     10.38735483	      0.67490591	      0.89829274	     -0.19148760	      3.21581359	     -6.35766112	     -6.61710631	      7.52185807	      0.13128119	     10.93796688	      0.13872993	     -7.49999987	      5.07729640	     -0.47967050	      2.97503394	      4.97679278	      0.08686142	     14.02386488	      1.03169727	     -7.49999987	    -11.15698478	     -5.07236631	      1.96679418	     14.07996454	     -6.51864171	     44.34341441	     23.90253281	     72.21700448	     13.88394854	    -11.05741504	     53.67120899	     21.25327322	     49.06333342
      4.01666670	     -3.03787145	      2.07966428	     10.06982939	      0.67571042	      0.89600845	     -0.18953598	      2.83292116	     -6.05136627	     -6.48750290	      6.68659950	      0.11670318	     11.14082191	     -0.16674150	     -7.49999987	      4.73980472	     -0.65023575	      2.98711390	      4.36468940	      0.07617820	     14.75701900	      1.54376314	     -7.49999987	    -10.80344455	     -4.99160494	      2.47441440	     13.58849113	     -6.74580898	     42.80344034	     25.42228130	     71.16346742	     16.18871916	    -10.93097661	     51.80961327	     23.89078180	     50.82254609
      4.03333330	     -3.05651580	      1.95028241	      9.81049494	      0.68065313	      0.89657665	     -0.18609323	      2.31836797	     -5.61786239	     -6.34172553	      5.70771056	      0.09961834	     11.40929844	     -0.14933457	     -7.49999987	      4.32695133	     -0.98800616	      3.18020307	      3.77507945	      0.06588757	     15.36228275	      2.07049920	     -7.49999987	     -9.95278157	     -4.93712102	      3.16990307	     13.02825026	     -6.81723276	     41.76593875	     26.36147675	     70.52005351	     18.57956645	    -10.66707455	     50.08577899	     26.47646182	     52.12970619
      4.05000000	     -3.21430908	      1.79525064	      9.57532050	      0.67447173	      0.89538297	     -0.18110566	      2.22979526	     -5.20092140	     -6.32543705	      5.01038467	      0.08744771	     11.71899638	      0.00276937	     -7.49999987	      4.34331827	     -1.32334118	      3.29775074	      3.44740776	      0.06016862	     15.89107798	      2.35416481	     -7.49999987	     -9.07577482	     -4.93094294	      4.08872710	     12.90083830	     -6.90309118	     41.82801304	     26.89004406	     70.78777536	     21.70717232	    -10.39168170	     49.43460478	     29.39834529	     52.44588230
      4.06666670	     -3.49291302	      1.72386144	      9.49068683	      0.66958945	      0.89438846	     -0.18032946	      2.30513794	     -4.97668363	     -5.82306665	      4.36606971	      0.07620229	     11.90539982	     -0.09179525	     -7.49999987	      4.60093379	     -1.53165904	      3.40868845	      3.14846268	      0.05495104	     16.05270394	      2.75453020	     -7.49999987	     -8.54017444	     -4.87351744	      3.85835357	     12.82523999	     -6.72189320	     39.11785010	     28.96789907	     73.51935216	     23.02492498	    -10.64239074	     40.64964797	     36.32120946	     59.50639478
      4.08333330	     -3.94578401	      1.64928978	      9.60369372	      0.65899933	      0.89588345	     -0.17938923	      2.87343428	     -4.88280164	     -5.72543570	      3.84663690	      0.06713648	     11.64677529	     -0.30845527	     -7.49999987	      5.42354564	     -1.56559087	      3.86726052	      2.99936392	      0.05234878	     15.68368161	      2.34469473	     -7.49999987	     -7.97075156	     -4.82831620	      4.31804756	     12.93436288	     -6.99479771	     37.54293660	     30.93624818	     72.65253357	     25.94934622	     -9.97174879	     36.24339415	     41.97144506	     61.09116534
      4.10000000	     -4.29955955	      1.59679309	      9.88359279	      0.65803874	      0.89950727	     -0.17907109	      3.26366249	     -4.82486269	     -5.63456338	      3.30057613	      0.05760592	     10.88662171	     -0.76521915	     -7.49999987	      6.12540880	     -1.58611237	      3.92088615	      2.82327754	      0.04927549	     15.12413331	      2.35866294	     -7.49999987	     -7.52784154	     -4.74488233	      4.77800457	     12.53967472	     -7.37076789	     35.61149465	     33.20159216	     72.56961019	     27.66397958	     -9.12661348	     30.56026337	     48.88192458	     61.54068771
      4.11666670	     -4.68257059	      1.61571222	      9.86599905	      0.65037993	      0.91046489	     -0.17749698	      3.95324282	     -4.89089765	     -5.74885545	      2.90937752	      0.05077822	      9.73395514	     -0.48815438	     -7.49999987	      6.92006505	     -1.48023559	      3.83986937	      2.60765932	      0.04551224	     13.93426484	      2.24406675	     -7.49999987	     -7.24674400	     -4.49563928	      4.82079682	     12.56858543	     -7.21066227	     33.32102556	     33.62237129	     75.39927433	     27.09981825	     -8.23287492	     22.00613341	     57.49465490	     65.84901693
      4.13333330	     -4.98163165	      1.53552344	     10.01251064	      0.64575946	      0.90597133	     -0.17742566	      4.57614153	     -4.85433346	     -5.66194479	      2.57537434	      0.04494876	      9.00056691	     -0.66243237	     -7.49999987	      7.78600682	     -1.43603054	      3.95750532	      2.64770516	      0.04621117	     13.34541258	      2.09953154	     -7.49999987	     -7.15473897	     -4.14596388	      5.48616168	     11.42643661	     -7.58240277	     28.63488734	     35.55831582	     76.69787297	     26.98788596	     -7.36131669	     16.81335411	     67.84714637	     65.95040984
      4.15000000	     -5.06072860	      1.52138603	     10.35977367	      0.64432209	      0.90558087	     -0.17929884	      4.90466534	     -4.92401589	     -5.90034800	      2.39812512	      0.04185518	      8.24117574	     -0.70101062	     -7.49999987	      8.39838721	     -1.32777875	      4.02351604	      2.80002537	      0.04886966	     12.85905257	      2.27781441	     -7.49999987	     -7.39781295	     -3.81552261	      5.64118558	     10.23722535	     -7.91792989	     24.70068583	     36.95742257	     74.19474655	     26.99155090	     -6.91998943	     12.53504834	     78.77638943	     64.35753617
